# xmcd
#
# Track frame offsets:
#	150
#	13413
#	29575
#	36831
#	54009
#	64189
#	76707
#	88871
#	110674
#	121726
#	128338
#	140422
#	151877
#	167242
#
# Disc length: 2350 seconds
#
# Revision: 0
# Processed by: cddbd v1.4PL0 Copyright (c) Steve Scherf et al.
# Submitted via: dBpowerAMP V4.0
#
DISCID=af092c0e
DTITLE=Marcel Dadi - Live a l'Olympia
DYEAR=1975
DGENRE=Picking
TTITLE0=Hard Way
TTITLE1=Blueberry
TTITLE2=Lady Madonna
TTITLE3=Song for Doc
TTITLE4=Deep River Blues
TTITLE5=Slow Blues in C
TTITLE6=Winther Waltz
TTITLE7=L'Echo des Savanes
TTITLE8=For no One
TTITLE9=Yankee Doodle/Dixie
TTITLE10=La Madrugada
TTITLE11=Nine Pound Hammer
TTITLE12=Song for Jerry
TTITLE13=Ce n'est qu un au Revoir
EXTD=Dadi and Friends Cuntry Show Live a l'Olympia
EXTT0=
EXTT1=
EXTT2=
EXTT3=
EXTT4=
EXTT5=
EXTT6=
EXTT7=
EXTT8=
EXTT9=
EXTT10=
EXTT11=
EXTT12=
EXTT13=
PLAYORDER=
